<?xml version="1.0" encoding="UTF-8"?>
<svg width="66px" height="20px" viewBox="0 0 66 20" version="1.1" xmlns="http://www.w3.org/2000/svg" xmlns:xlink="http://www.w3.org/1999/xlink">
    <!-- Generator: Sketch 44.1 (41455) - http://www.bohemiancoding.com/sketch -->
    <title>logo</title>
    <desc>Created with Sketch.</desc>
    <defs></defs>
    <g id="Symbols" stroke="none" stroke-width="1" fill="none" fill-rule="evenodd">
        <g id="NaviBar/logo">
            <g id="logo">
                <path d="M19.716721,3.9568169 L19.716721,16.157662 C19.716721,18.9959718 18.2522575,19.9047042 15.8737082,19.9047042 L14.2834764,19.9047042 L14.2834764,18.4359718 C14.3081202,17.8255493 14.6964721,17.4404789 15.3100172,17.4024507 L15.8737082,17.4024507 C16.7623004,17.4024507 17.2005064,17.0534366 17.2005064,16.157662 L17.2005064,15.5106197 L17.2005064,13.3444225 L17.2005064,6.01090141 L17.2005064,3.9568169 C17.1750129,3.03625352 16.8373648,2.87428169 15.8737082,2.86188732 L14.1333476,2.86188732 L13.6826781,2.86188732 C13.2946094,2.86188732 13.1195536,2.89878873 12.8946438,3.22301408 L9.90254936,7.90385915 C9.72607725,8.22695775 9.78924464,8.46329577 10.1894936,8.50132394 L11.4038369,8.50132394 C12.5561459,8.50132394 12.9062575,8.91202817 12.9062575,10.0449859 L12.9062575,16.5438592 C12.9062575,18.809493 11.6921974,19.9047042 9.68953648,19.9047042 L3.84301288,19.9047042 C1.48939056,19.9047042 0,19.1331549 0,16.3072394 L0,4.10639437 C0,1.87850704 0.950909871,0.359070423 3.84301288,0.359070423 L8.80490987,0.359070423 L7.7783691,2.02780282 C7.45233476,2.56301408 7.28974249,2.86188732 6.62634335,2.86188732 L3.84301288,2.86188732 C2.9411073,2.86188732 2.51564807,3.1855493 2.50318455,4.10639437 C2.50318455,4.79090141 2.51564807,5.46414085 2.51564807,6.14808451 L2.51564807,6.92047887 L2.51564807,15.1368169 C2.51564807,15.5227324 2.50318455,15.9210423 2.50318455,16.3072394 C2.52839485,17.2280845 2.9915279,17.4024507 3.84301288,17.4024507 L9.23830043,17.4024507 C10.1393562,17.4024507 10.3908927,17.165831 10.3908927,16.269493 L10.3908927,11.6134366 C10.3908927,11.1154085 10.2648412,11.0038592 9.72607725,11.0038592 L7.62399142,11.0038592 C6.92263519,10.978507 6.4464721,10.8049859 6.42154506,10.0323099 L6.42154506,9.01174648 C6.43344206,8.46329577 6.55949356,8.11569014 6.82236052,7.63005634 L10.7163605,1.40498592 C11.2168841,0.63315493 11.5545322,0.384140845 12.4935451,0.359070423 L14.471279,0.359070423 L15.8737082,0.359070423 C18.7278541,0.396535211 19.6790472,1.35540845 19.716721,3.9568169" id="Fill-1" fill="#EB5404"></path>
                <path d="M65.2609983,16.7718028 L61.2038395,11.2982817 L64.1455133,9.07884507 C64.4494532,8.85264789 64.5253674,8.72616901 64.2973416,8.44898592 L63.6132644,7.54053521 C63.4098824,7.31349296 63.2574876,7.238 62.9280541,7.49039437 L59.7575047,9.8864507 C58.9201828,10.5168732 58.6669468,11.1470141 59.6558137,12.4833521 L64.4494532,19.0163099 L65.1842343,18.4608169 C65.9459253,17.9067324 65.8943717,17.6549014 65.2609983,16.7718028" id="Fill-3" fill="#574E44"></path>
                <path d="M55.3905425,7.73459155 C55.7046798,7.42078873 56.0100361,7.09656338 56.3023622,6.75853521 L61.8370146,6.75853521 C62.5717957,6.75853521 62.5717957,6.55684507 62.5717957,5.87571831 C62.5717957,5.11966197 62.4964481,4.91740845 61.8370146,4.91740845 L50.7798901,4.91740845 C49.8915811,4.91740845 49.6131348,5.24529577 49.6131348,5.80078873 L49.6131348,6.75853521 L53.5280961,6.75853521 C51.7670575,8.40078873 49.7272893,9.65261972 47.3300446,10.3407887 C46.4932893,10.5675493 46.4932893,10.6427606 46.4932893,11.5506479 L46.4932893,12.4337465 C49.2525425,11.9213521 51.7038901,10.7771268 53.7884137,9.14980282 C54.1229459,9.23994366 54.4251863,9.39177465 54.6979674,9.59346479 C52.8086112,11.4517746 50.4589545,12.8427606 47.837933,13.5943099 C46.5949803,13.9221972 46.4932893,14.0726197 46.4932893,14.9807887 L46.4932893,15.8388169 C50.1278215,15.2207887 53.3759845,13.5633239 55.9312893,11.1351549 C56.153933,11.5689577 56.3346541,12.0388169 56.477418,12.5134648 C54.2311519,14.6855775 51.2891948,16.3712113 48.0908858,16.9729014 C47.9390575,16.9988169 47.9138472,16.9988169 47.6348343,17.0740282 C46.9756841,17.2255775 46.4932893,17.5534648 46.4932893,18.6126197 L46.4932893,19.091493 C50.3586798,18.9419155 54.171667,17.1371268 56.9051433,14.7283944 C56.9303536,15.0072676 56.9422506,15.2638873 56.9422506,15.4855775 C56.9422506,18.4362817 54.2540961,17.6548732 54.2540961,18.9151549 L54.2540961,19.8990986 C57.754079,19.8990986 58.9970318,17.8810704 58.9970318,15.4855775 C58.9970318,12.5292394 58.4628,9.40670423 55.3905425,7.73459155" id="Fill-5" fill="#574E44"></path>
                <path d="M46.8987785,6.75915493 L48.3196197,6.75915493 C48.5227185,6.75915493 48.6496197,6.5828169 48.6496197,6.38084507 L48.6496197,3.80816901 L52.8084695,3.80816901 L59.2249159,3.80816901 L63.4602464,3.80816901 L63.4602464,6.38084507 C63.4602464,6.5828169 63.5871476,6.75915493 63.8157399,6.75915493 L65.2096712,6.75915493 C65.4385468,6.75915493 65.540521,6.5828169 65.540521,6.38084507 L65.540521,3.15239437 C65.540521,2.14309859 65.2096712,1.96647887 64.1457399,1.96647887 L59.2249159,1.96647887 L57.0438,1.96647887 L57.0438,0 L55.6739459,0 C55.1663408,0 54.9895854,0.176619718 54.9895854,0.629859155 L54.9895854,1.96647887 L52.8084695,1.96647887 L47.9901863,1.96647887 C46.8987785,1.96647887 46.5951219,2.14309859 46.5951219,3.15239437 L46.5951219,6.38084507 C46.5951219,6.5828169 46.6959631,6.75915493 46.8987785,6.75915493" id="Fill-7" fill="#574E44"></path>
                <path d="M36.9320704,1.96709859 L37.5668601,5.63380281e-05 L36.5006627,5.63380281e-05 C35.3341906,5.63380281e-05 35.4610918,0.151042254 35.1316584,1.13414085 L34.5478558,2.92540845 C34.3195468,3.65611268 34.4461648,3.80766197 35.2330661,3.80766197 L41.548388,3.80766197 L41.548388,18.0578028 L38.884594,18.0578028 L39.1641734,18.8141408 C39.5454438,19.824 39.5188172,19.8989296 40.1527571,19.8989296 L42.6131691,19.8989296 C43.5255554,19.8989296 43.6014695,19.5963944 43.6014695,18.7383662 L43.6014695,3.15188732 C43.6014695,2.14259155 43.2983794,1.96709859 42.2072549,1.96709859 L36.9320704,1.96709859 Z" id="Fill-9" fill="#574E44"></path>
                <path d="M40.1027047,15.7880845 C40.6086103,15.7880845 40.7864987,15.7630141 40.7105845,15.0813239 L40.3307305,11.5255493 C40.2803099,11.1227324 40.0259408,10.9455493 39.6455202,10.9455493 L38.4286275,10.9455493 L38.7577777,13.9469577 L36.3231425,13.9469577 L38.6566532,6.25484507 L37.4893313,6.25484507 C36.8304644,6.25484507 36.6270824,6.28019718 36.4746876,6.73371831 L33.888224,15.1582254 C33.7363957,15.6624507 33.7873828,15.7880845 34.3958292,15.7880845 L35.7651167,15.7880845 L38.9611597,15.7880845 L40.1027047,15.7880845 Z" id="Fill-11" fill="#574E44"></path>
                <path d="M32.7473021,1.96709859 L30.1095682,1.96709859 L30.1095682,5.63380281e-05 L28.7405639,5.63380281e-05 C28.2326755,5.63380281e-05 28.0556369,0.176676056 28.0556369,0.629915493 L28.0556369,1.96709859 L25.8487442,1.96709859 C24.961285,1.96709859 24.6819888,2.29498592 24.6819888,2.82456338 L24.6819888,3.80766197 L28.0556369,3.80766197 L28.0556369,19.5710423 C28.0556369,19.7727324 28.1063408,19.8989296 28.4097142,19.8989296 L29.0952077,19.8989296 L29.7790017,19.8989296 C30.0333708,19.8989296 30.1095682,19.824 30.1095682,19.5710423 L30.1095682,3.80766197 L32.7473021,3.80766197 C33.4823665,3.80766197 33.4823665,3.58090141 33.4823665,2.92540845 C33.4823665,2.14259155 33.4064524,1.96709859 32.7473021,1.96709859" id="Fill-13" fill="#574E44"></path>
                <path d="M25.1639588,5.47284507 L25.1639588,17.5277746 C25.1639588,17.755662 25.2155124,17.9069296 25.5440961,17.9069296 L26.026491,17.9069296 L26.7360618,17.9069296 C27.0153579,17.9069296 27.0918386,17.8308732 27.0918386,17.5277746 L27.0918386,4.79143662 L25.8993064,4.79143662 C25.3412807,4.79143662 25.1639588,4.96833803 25.1639588,5.47284507" id="Fill-15" fill="#574E44"></path>
                <path d="M31.0734515,5.47284507 L31.0734515,17.5277746 C31.0734515,17.755662 31.1244386,17.9069296 31.4538721,17.9069296 L31.9368335,17.9069296 L32.621194,17.9069296 C32.8993571,17.9069296 33.0016146,17.8308732 33.0016146,17.5277746 L33.0016146,4.79143662 L31.8082326,4.79143662 C31.2510567,4.79143662 31.0734515,4.96833803 31.0734515,5.47284507" id="Fill-17" fill="#574E44"></path>
                <rect id="Rectangle" fill-opacity="0" fill="#FFFFFF" x="0" y="0" width="66" height="20"></rect>
            </g>
        </g>
    </g>
</svg>